<?xml version="1.0" encoding="utf-8"?>
<!-- Generator: Adobe Illustrator 23.0.2, SVG Export Plug-In . SVG Version: 6.00 Build 0)  -->
<svg version="1.1" id="Layer_2" xmlns="http://www.w3.org/2000/svg" xmlns:xlink="http://www.w3.org/1999/xlink" x="0px" y="0px"
	 viewBox="0 0 100 100" style="enable-background:new 0 0 100 100;" xml:space="preserve">
<g>
	<path d="M85.7,98.2c0.9,1,2.5,0.9,3.5,0s1-2.5,0-3.5L44.4,49.9L89.1,5.1c1-0.9,0.9-2.5,0-3.5s-2.5-1-3.5,0L38.7,48.5
		c-0.8,0.8-0.8,2,0,2.8L85.7,98.2z"/>
	<path d="M61.2,1.6c-0.9-1-2.5-1-3.5,0L10.8,48.5c-0.8,0.8-0.8,2,0,2.8l46.9,46.9c0.9,1,2.5,0.9,3.5,0s1-2.5,0-3.5L16.4,49.9
		L61.2,5.1C62.1,4.1,62.1,2.6,61.2,1.6z"/>
</g>
</svg>
